<svg width="73" height="54" viewBox="0 0 73 54" fill="none" xmlns="http://www.w3.org/2000/svg">
<path fill-rule="evenodd" clip-rule="evenodd" d="M29.1351 1C28.6338 1 18.6075 1.18705 10.7117 6.79856C5.63592 10.4772 1.43741 16.4628 1.43741 26.2518C1.43741 51.1295 23.9339 53 25.4379 53C33.7096 53 28.8844 43.9592 35.4015 43.8969C42.3573 43.8345 38.0334 53 44.4252 53C50.817 53 46.9944 43.4604 53.4489 43.6475C59.9033 43.8345 57.3341 53 62.1592 53C66.9844 53 73.0002 44.0839 73.0002 34.7938C73.0002 25.5036 65.2298 2.1223 29.1351 1Z" fill="white"/>
<path fill-rule="evenodd" clip-rule="evenodd" d="M28.6977 1C28.1964 1 18.17 1.18705 10.2743 6.79856C5.19851 10.4149 1 16.4628 1 26.2518C1 51.1295 23.4965 53 25.0005 53C33.2722 53 28.447 43.9592 34.9641 43.8969C41.9199 43.8345 37.596 53 43.9878 53C50.3795 53 46.557 43.4604 53.0115 43.6475C59.4659 43.8345 56.8966 53 61.7218 53C66.547 53 72.5628 44.0839 72.5628 34.7938C72.5628 25.5036 64.7924 2.1223 28.6977 1Z" fill="url(#paint0_linear_1_10661)" stroke="#FF7900" stroke-width="0.0563442" stroke-miterlimit="10"/>
<path fill-rule="evenodd" clip-rule="evenodd" d="M7.95673 14.4052C6.01413 12.9711 8.39538 10.0407 10.2753 6.79846C5.19949 10.4148 1.00098 16.4627 1.00098 26.2517C1.00098 51.1294 23.4975 52.9999 25.0015 52.9999C33.2732 52.9999 28.5733 43.8968 34.9651 43.8968C41.3569 43.8968 46.6207 34.4819 46.6207 31.3021C46.6207 28.1222 45.994 27.6234 45.1794 26.9999C44.3648 26.3141 38.6623 24.5059 38.6623 24.5059C38.6623 24.5059 36.1557 18.2709 30.6412 17.0239C25.1268 15.7769 10.5886 16.4627 7.95673 14.4052Z" fill="url(#paint1_linear_1_10661)" stroke="#FF4800" stroke-width="0.0563442" stroke-miterlimit="10"/>
<path d="M7.95673 14.4052C6.01413 12.9711 8.39538 10.0407 10.2753 6.79846C5.19949 10.4148 1.00098 16.4627 1.00098 26.2517C1.00098 51.1294 23.4975 52.9999 25.0015 52.9999C33.2732 52.9999 28.5733 43.8968 34.9651 43.8968C41.3569 43.8968 46.6207 34.4819 46.6207 31.3021C46.6207 28.1222 45.994 27.6234 45.1794 26.9999C44.3648 26.3141 38.6623 24.5059 38.6623 24.5059C38.6623 24.5059 36.1557 18.2709 30.6412 17.0239C25.1268 15.7769 10.5886 16.4627 7.95673 14.4052Z" fill="url(#paint2_linear_1_10661)"/>
<path fill-rule="evenodd" clip-rule="evenodd" d="M43.2355 26.065C45.4915 26.6885 46.4941 27.9355 46.4941 29.4943C46.3688 30.6166 44.2382 29.8684 43.4862 29.3072C42.7969 28.8084 40.9796 25.5039 43.2355 26.065Z" fill="white"/>
<path d="M33.773 28.5586C34.4998 28.5586 35.0889 27.9724 35.0889 27.2493C35.0889 26.5262 34.4998 25.9399 33.773 25.9399C33.0462 25.9399 32.457 26.5262 32.457 27.2493C32.457 27.9724 33.0462 28.5586 33.773 28.5586Z" fill="white"/>
<path fill-rule="evenodd" clip-rule="evenodd" d="M23.3697 22.6978C24.811 21.8872 26.3776 21.9496 26.3776 21.9496C26.3776 21.9496 23.8711 18.3333 21.3018 20.5155C18.7326 22.6978 22.2418 25.1294 22.2418 25.1294C22.2418 25.1294 21.9285 23.5083 23.3697 22.6978Z" fill="white"/>
<path fill-rule="evenodd" clip-rule="evenodd" d="M23.8089 22.6978C25.2502 21.8872 26.8168 21.9496 26.8168 21.9496C26.8168 21.9496 24.3103 18.3333 21.741 20.5155C19.1718 22.6978 22.305 25.3788 22.305 25.3788C22.305 25.3788 22.3677 23.5083 23.8089 22.6978Z" fill="url(#paint3_radial_1_10661)"/>
<path d="M33.9618 28.4339C34.654 28.4339 35.2151 27.8756 35.2151 27.1869C35.2151 26.4982 34.654 25.9399 33.9618 25.9399C33.2696 25.9399 32.7085 26.4982 32.7085 27.1869C32.7085 27.8756 33.2696 28.4339 33.9618 28.4339Z" fill="#F06800"/>
<defs>
<linearGradient id="paint0_linear_1_10661" x1="51.1536" y1="5.29474" x2="22.6885" y2="54.8461" gradientUnits="userSpaceOnUse">
<stop stop-color="#FD9C03"/>
<stop offset="1" stop-color="#F06800"/>
</linearGradient>
<linearGradient id="paint1_linear_1_10661" x1="29.6654" y1="15.9892" x2="11.1515" y2="48.2179" gradientUnits="userSpaceOnUse">
<stop stop-color="#FD9C03"/>
<stop offset="1" stop-color="#F06800"/>
</linearGradient>
<linearGradient id="paint2_linear_1_10661" x1="29.6654" y1="15.9892" x2="11.1515" y2="48.2179" gradientUnits="userSpaceOnUse">
<stop offset="1.19808e-07" stop-color="#FDD400"/>
<stop offset="1" stop-color="#F8AD04"/>
</linearGradient>
<radialGradient id="paint3_radial_1_10661" cx="0" cy="0" r="1" gradientUnits="userSpaceOnUse" gradientTransform="translate(23.7446 22.6021) scale(2.92417 2.90951)">
<stop stop-color="#FD9C03"/>
<stop offset="1" stop-color="#F06800"/>
</radialGradient>
</defs>
</svg>
