<svg width="36" height="36" viewBox="0 0 36 36" fill="none" xmlns="http://www.w3.org/2000/svg">
<path d="M17.9998 0.000344281C0 -0.00829176 0.000128827 0.00861732 1.54349e-09 18.0002C-0.000128824 36 6.86639e-06 36 17.9998 36C35.9996 36 35.9996 36 35.9996 18.0002C35.9996 0.000357052 35.9997 0.00898032 17.9998 0.000344281ZM26.3517 12.2402C26.0817 15.0842 24.9118 21.9961 24.3178 25.1821C24.0658 26.5321 23.5618 26.9821 23.0938 27.0361C22.0498 27.1261 21.2578 26.3521 20.2498 25.6861C18.6658 24.6421 17.7658 23.9941 16.2358 22.9861C14.4539 21.8161 15.6058 21.1681 16.6318 20.1241C16.9018 19.8541 21.5098 15.6602 21.5998 15.2822C21.6123 15.2249 21.6106 15.1655 21.5949 15.109C21.5793 15.0526 21.55 15.0008 21.5098 14.9582C21.4018 14.8682 21.2578 14.9042 21.1318 14.9222C20.9698 14.9582 18.4498 16.6322 13.5359 19.9441C12.8159 20.4301 12.1679 20.6821 11.5919 20.6641C10.9439 20.6461 9.71991 20.3041 8.80192 19.9981C7.66793 19.6381 6.78593 19.4402 6.85793 18.8102C6.89393 18.4862 7.34393 18.1622 8.18992 17.8202C13.4459 15.5342 16.9378 14.0222 18.6838 13.3022C23.6878 11.2142 24.7138 10.8542 25.3978 10.8542C25.5418 10.8542 25.8838 10.8902 26.0997 11.0702C26.2797 11.2142 26.3337 11.4122 26.3517 11.5562C26.3337 11.6642 26.3697 11.9882 26.3517 12.2402Z" fill="white"/>
</svg>
