<svg width="36" height="36" viewBox="0 0 36 36" fill="none" xmlns="http://www.w3.org/2000/svg">
<path d="M2.51963 2.52C-0.000365734 5.064 -0.000366211 9.132 -0.000366211 17.28V18.72C-0.000366211 26.856 -0.000365734 30.924 2.51963 33.48C5.06363 36 9.13163 36 17.2796 36H18.7196C26.8556 36 30.9236 36 33.4796 33.48C35.9996 30.936 35.9996 26.868 35.9996 18.72V17.28C35.9996 9.144 35.9996 5.076 33.4796 2.52C30.9356 4.76837e-07 26.8676 0 18.7196 0H17.2796C9.14363 0 5.07563 4.76837e-07 2.51963 2.52ZM6.07163 10.956H10.1996C10.3316 17.82 13.3556 20.724 15.7556 21.324V10.956H19.6316V16.872C21.9956 16.62 24.4916 13.92 25.3316 10.944H29.1956C28.8807 12.4846 28.2514 13.9436 27.347 15.2299C26.4427 16.5163 25.2827 17.6023 23.9396 18.42C25.4385 19.1657 26.7622 20.2209 27.8233 21.5157C28.8845 22.8106 29.6589 24.3158 30.0956 25.932H25.8356C24.9236 23.088 22.6436 20.88 19.6316 20.58V25.932H19.1516C10.9436 25.932 6.26363 20.316 6.07163 10.956Z" fill="white"/>
</svg>
