<svg width="40" height="32" viewBox="0 0 40 32" fill="none" xmlns="http://www.w3.org/2000/svg">
<path d="M19.9996 0C21.7096 0 23.4636 0.0440002 25.1636 0.116L27.1716 0.212L29.0936 0.326L30.8936 0.448L32.5376 0.576C34.3217 0.712555 36.0005 1.47389 37.2787 2.72608C38.5568 3.97826 39.3525 5.64108 39.5256 7.422L39.6056 8.272L39.7556 10.092C39.8956 11.978 39.9996 14.034 39.9996 16C39.9996 17.966 39.8956 20.022 39.7556 21.908L39.6056 23.728C39.5796 24.02 39.5536 24.302 39.5256 24.578C39.3524 26.3592 38.5565 28.0223 37.2779 29.2745C35.9994 30.5268 34.3201 31.2879 32.5356 31.424L30.8956 31.55L29.0956 31.674L27.1716 31.788L25.1636 31.884C23.4433 31.9588 21.7216 31.9974 19.9996 32C18.2777 31.9974 16.556 31.9588 14.8356 31.884L12.8276 31.788L10.9056 31.674L9.10563 31.55L7.46163 31.424C5.67753 31.2874 3.99874 30.5261 2.72058 29.2739C1.44242 28.0217 0.646782 26.3589 0.473634 24.578L0.393634 23.728L0.243634 21.908C0.0907089 19.9423 0.00932183 17.9716 -0.000366211 16C-0.000366211 14.034 0.103634 11.978 0.243634 10.092L0.393634 8.272C0.419634 7.98 0.445634 7.698 0.473634 7.422C0.646715 5.6414 1.44207 3.97883 2.71982 2.72669C3.99757 1.47454 5.67589 0.713005 7.45963 0.576L9.10163 0.448L10.9016 0.326L12.8256 0.212L14.8336 0.116C16.5546 0.0412659 18.277 0.00259057 19.9996 0ZM19.9996 4C18.3496 4 16.6516 4.044 14.9996 4.112L13.0436 4.206L11.1656 4.316L9.40163 4.436L7.78563 4.562C6.9363 4.62226 6.13572 4.98129 5.52582 5.57545C4.91592 6.16961 4.53608 6.96053 4.45363 7.808C4.21963 10.226 3.99963 13.236 3.99963 16C3.99963 18.764 4.21963 21.774 4.45363 24.192C4.62363 25.936 6.00763 27.292 7.78563 27.438L9.40163 27.562L11.1656 27.682L13.0436 27.794L14.9996 27.888C16.6516 27.956 18.3496 28 19.9996 28C21.6496 28 23.3476 27.956 24.9996 27.888L26.9556 27.794L28.8336 27.684L30.5976 27.564L32.2136 27.438C33.063 27.3777 33.8635 27.0187 34.4734 26.4245C35.0834 25.8304 35.4632 25.0395 35.5456 24.192C35.7796 21.774 35.9996 18.764 35.9996 16C35.9996 13.236 35.7796 10.226 35.5456 7.808C35.4632 6.96053 35.0834 6.16961 34.4734 5.57545C33.8635 4.98129 33.063 4.62226 32.2136 4.562L30.5976 4.438L28.8336 4.318L26.9556 4.206L24.9996 4.112C23.3339 4.04033 21.6669 4.00299 19.9996 4ZM15.9996 11.15C15.9995 10.9545 16.0471 10.762 16.1384 10.5891C16.2296 10.4162 16.3617 10.2683 16.5231 10.1581C16.6846 10.0479 16.8705 9.97879 17.0648 9.95681C17.259 9.93484 17.4556 9.96065 17.6376 10.032L17.7996 10.112L26.1996 14.96C26.3669 15.0565 26.5084 15.192 26.6121 15.3549C26.7159 15.5178 26.7787 15.7033 26.7954 15.8957C26.8121 16.0881 26.7821 16.2817 26.708 16.46C26.6339 16.6383 26.5178 16.7961 26.3696 16.92L26.1996 17.04L17.7996 21.89C17.6304 21.988 17.4397 22.0432 17.2442 22.0507C17.0488 22.0582 16.8544 22.0177 16.6781 21.933C16.5019 21.8482 16.349 21.7216 16.2328 21.5642C16.1167 21.4068 16.0407 21.2234 16.0116 21.03L15.9996 20.85V11.15Z" fill="white"/>
</svg>
